<svg width="557.4350219726563px" height="132.3199981689453px" xmlns="http://www.w3.org/2000/svg" viewBox="-28.717510986328136 8.840000915527355 557.4350219726563 132.3199981689453" style="background: rgba(0, 0, 0, 0);" preserveAspectRatio="xMidYMid"><defs><filter id="editing-hole" x="-100%" y="-100%" width="300%" height="300%"><feFlood flood-color="#000000" result="black"></feFlood><feMorphology operator="dilate" radius="2" in="SourceGraphic" result="erode"></feMorphology><feGaussianBlur in="erode" stdDeviation="4" result="blur"></feGaussianBlur><feOffset in="blur" dx="2" dy="2" result="offset"></feOffset><feComposite operator="atop" in="offset" in2="black" result="merge"></feComposite><feComposite operator="in" in="merge" in2="SourceGraphic" result="inner-shadow"></feComposite></filter></defs><g filter="url(#editing-hole)"><g transform="translate(51.63002252578735, 97.17499923706055)"><path d="M19.26 0.96L19.26 0.96Q11.78 0.96 7.23-4L7.23-4L7.23-4Q2.69-8.96 2.69-17.41L2.69-17.41L2.69-17.41Q2.69-25.86 7.46-33.18L7.46-33.18L7.46-33.18Q12.22-40.51 20.03-42.62L20.03-42.62L20.03-42.62Q27.84-42.62 31.84-37.95L31.84-37.95L31.84-37.95Q35.84-33.28 35.84-24.61L35.84-24.61L35.84-24.61Q35.84-15.94 31.46-8.99L31.46-8.99L31.46-8.99Q27.07-2.05 19.26 0.96L19.26 0.96ZM17.66-38.02L17.66-38.02L17.66-38.02Q14.08-38.02 11.65-35.84L11.65-35.84L11.65-35.84Q8.38-30.08 8.38-21.70L8.38-21.70L8.38-21.70Q8.38-11.71 13.76-6.46L13.76-6.46L13.76-6.46Q16.64-3.65 20.51-3.65L20.51-3.65L20.51-3.65Q24.38-3.65 26.94-5.89L26.94-5.89L26.94-5.89Q30.14-11.78 30.14-19.84L30.14-19.84L30.14-19.84Q30.14-27.33 27.58-32.38L27.58-32.38L27.58-32.38Q24.77-38.02 17.66-38.02ZM64.26-38.98L64.26-38.98L64.26-38.98Q64.26-40.38 62.98-41.02L62.98-41.02L63.23-41.92L63.23-41.92Q66.43-41.66 69.98-41.66L69.98-41.66L69.98-41.66Q73.54-41.66 76.86-42.18L76.86-42.18L77.18-40.58L77.18-40.58Q74.11-39.62 70.98-39.23L70.98-39.23L58.43-19.07L58.43-19.07Q58.43-8.38 59.26-2.24L59.26-2.24L59.26-2.24Q62.66-1.92 66.30-1.02L66.30-1.02L66.11 0.51L66.11 0.51Q61.38 0 55.84 0L55.84 0L55.84 0Q50.30 0 46.91 0.51L46.91 0.51L46.66-1.09L46.66-1.09Q49.54-1.98 52.80-2.43L52.80-2.43L52.80-2.43Q53.50-7.68 53.50-15.68L53.50-15.68L53.50-17.34L53.50-17.34Q47.10-30.91 45.38-34.40L45.38-34.40L45.38-34.40Q43.65-37.89 42.50-39.23L42.50-39.23L42.50-39.23Q38.91-39.68 36.35-40.58L36.35-40.58L36.61-42.18L36.61-42.18Q40-41.66 45.79-41.66L45.79-41.66L45.79-41.66Q51.58-41.66 56.32-42.18L56.32-42.18L56.51-40.64L56.51-40.64Q52.86-39.74 49.47-39.42L49.47-39.42L49.47-39.42Q52.48-30.46 57.15-21.57L57.15-21.57L57.15-21.57Q64.26-35.46 64.26-38.98ZM92.86-4.10L92.86-4.10L92.86-4.10Q98.05-4.10 103.30-9.09L103.30-9.09L104.19-8.26L104.19-8.26Q98.88-1.47 91.52 0.96L91.52 0.96L91.52 0.96Q83.84 0.96 79.97-3.87L79.97-3.87L79.97-3.87Q76.10-8.70 76.10-17.25L76.10-17.25L76.10-17.25Q76.10-25.79 80.80-33.12L80.80-33.12L80.80-33.12Q85.50-40.45 93.44-42.62L93.44-42.62L93.44-42.62Q99.90-42.62 106.62-41.41L106.62-41.41L106.56-40L106.56-40Q104.90-40 103.49-39.42L103.49-39.42L103.49-39.42Q101.89-35.65 101.38-30.59L101.38-30.59L99.78-30.59L99.78-30.59Q99.20-33.15 99.20-36.54L99.20-36.54L99.20-36.54Q96.19-38.14 92-38.14L92-38.14L92-38.14Q87.81-38.14 85.06-35.84L85.06-35.84L85.06-35.84Q82.18-30.91 81.86-23.87L81.86-23.87L81.86-23.87Q84.61-23.36 89.02-23.36L89.02-23.36L89.02-23.36Q96.13-23.36 97.47-26.11L97.47-26.11L98.75-25.86L98.75-25.86Q98.18-23.81 98.18-20.99L98.18-20.99L98.18-20.99Q98.18-18.18 98.56-15.36L98.56-15.36L97.09-15.10L97.09-15.10Q96.13-17.54 95.81-20.80L95.81-20.80L95.81-20.80Q93.38-20.99 88.86-20.99L88.86-20.99L88.86-20.99Q84.35-20.99 81.79-20.67L81.79-20.67L81.79-20.67Q81.98-8.64 87.49-5.38L87.49-5.38L87.49-5.38Q89.66-4.10 92.86-4.10ZM129.34-4.48L129.34-4.48L129.34-4.48Q129.34-13.06 121.02-38.46L121.02-38.46L120.77-38.40L118.72-23.49L118.72-23.49Q117.44-14.34 117.44-6.98L117.44-6.98L117.44-6.98Q117.44-4.61 117.98-3.07L117.98-3.07L117.98-3.07Q118.53-1.54 120.19-0.64L120.19-0.64L119.94 0.26L119.94 0.26Q117.95 0 113.18 0L113.18 0L113.18 0Q108.42 0 104.64 0.51L104.64 0.51L104.38-1.09L104.38-1.09Q107.26-1.98 110.53-2.43L110.53-2.43L117.95-39.49L117.95-39.49Q114.11-39.87 110.91-40.64L110.91-40.64L111.10-42.18L111.10-42.18Q115.84-41.66 121.15-41.66L121.15-41.66L121.15-41.66Q126.46-41.66 129.02-41.92L129.02-41.92L129.15-41.02L129.15-41.02Q126.98-40.26 126.98-39.04L126.98-39.04L126.98-39.04Q126.98-34.82 132.03-18.75L132.03-18.75L134.02-12.48L134.46-12.61L134.46-12.61Q134.53-14.02 142.40-38.98L142.40-38.98L142.40-38.98Q142.40-39.62 141.70-40.22L141.70-40.22L141.70-40.22Q140.99-40.83 140.22-41.02L140.22-41.02L140.42-41.92L140.42-41.92Q143.62-41.66 149.18-41.66L149.18-41.66L149.18-41.66Q154.75-41.66 158.08-42.18L158.08-42.18L158.40-40.58L158.40-40.58Q155.33-39.62 152.19-39.23L152.19-39.23L152.19-39.23Q151.87-37.70 151.87-33.76L151.87-33.76L151.87-33.76Q151.87-29.82 152.93-17.98L152.93-17.98L152.93-17.98Q153.98-6.14 154.88-2.24L154.88-2.24L154.88-2.24Q158.27-1.92 161.92-1.02L161.92-1.02L161.73 0.51L161.73 0.51Q156.99 0 151.49 0L151.49 0L151.49 0Q145.98 0 142.59 0.51L142.59 0.51L142.34-1.09L142.34-1.09Q145.22-1.98 148.48-2.43L148.48-2.43L148.48-2.43Q148.48-8.51 147.74-19.55L147.74-19.55L147.74-19.55Q147.01-30.59 145.92-38.21L145.92-38.21L145.73-38.27L145.73-38.27Q136.70-13.31 136.19-6.72L136.19-6.72L136.19-6.72Q132.03-4.22 129.98-1.86L129.98-1.86L129.22-2.37L129.22-2.37Q129.34-3.78 129.34-4.48ZM197.06-1.09L196.86 0.26L196.86 0.26Q193.79 0 190.40 0L190.40 0L190.40 0Q187.01 0 185.02 0.26L185.02 0.26L184.77-0.64L184.77-0.64Q185.54-0.90 186.24-1.44L186.24-1.44L186.24-1.44Q186.94-1.98 186.94-2.62L186.94-2.62L186.94-2.62Q186.94-7.30 178.43-33.86L178.43-33.86L178.43-33.86Q177.28-37.38 176.45-39.23L176.45-39.23L176.45-39.23Q172.80-39.87 170.30-40.70L170.30-40.70L170.56-42.30L170.56-42.30Q176.77-41.66 191.26-41.66L191.26-41.66L191.26-41.66Q205.76-41.66 211.97-42.30L211.97-42.30L212.22-40.70L212.22-40.70Q209.41-39.81 206.08-39.23L206.08-39.23L206.08-39.23Q206.40-36.99 206.40-35.17L206.40-35.17L206.40-35.17Q206.40-33.34 205.89-30.59L205.89-30.59L205.89-30.59Q208.32-19.71 213.57-4.42L213.57-4.42L213.57-4.42Q218.30-16.38 219.81-22.56L219.81-22.56L219.81-22.56Q221.31-28.74 221.31-33.15L221.31-33.15L221.31-33.15Q221.31-39.17 218.11-41.02L218.11-41.02L218.37-41.92L218.37-41.92Q220.35-41.66 224.74-41.66L224.74-41.66L224.74-41.66Q229.12-41.66 232.90-42.18L232.90-42.18L233.15-40.58L233.15-40.58Q230.27-39.68 227.01-39.23L227.01-39.23L227.01-39.23Q227.33-36.99 227.33-35.52L227.33-35.52L227.33-35.52Q227.33-30.14 224.67-23.17L224.67-23.17L224.67-23.17Q222.02-16.19 215.04-2.18L215.04-2.18L215.04-2.18Q216.13-1.60 217.98-1.09L217.98-1.09L217.79 0.26L217.79 0.26Q214.72 0 211.33 0L211.33 0L211.33 0Q207.94 0 205.95 0.26L205.95 0.26L205.70-0.64L205.70-0.64Q206.46-0.90 207.17-1.44L207.17-1.44L207.17-1.44Q207.87-1.98 207.87-2.62L207.87-2.62L207.87-2.62Q207.87-6.40 203.33-21.76L203.33-21.76L203.07-21.76L203.07-21.76Q200.06-14.02 194.11-2.18L194.11-2.18L194.11-2.18Q195.20-1.60 197.06-1.09L197.06-1.09ZM192.64-4.42L192.64-4.42Q197.38-16.38 198.88-22.56L198.88-22.56L198.88-22.56Q200.38-28.74 200.38-33.12L200.38-33.12L200.38-33.12Q200.38-37.50 198.78-38.82L198.78-38.82L198.78-38.82Q197.18-40.13 192.22-40.13L192.22-40.13L192.22-40.13Q187.26-40.13 183.49-38.98L183.49-38.98L183.49-38.98Q184.06-33.73 186.78-23.42L186.78-23.42L186.78-23.42Q189.50-13.12 192.64-4.42L192.64-4.42ZM244.93-39.42L244.93-39.42L244.93-39.42Q244.22-34.62 244.22-21.50L244.22-21.50L244.22-21.50Q244.22-8.38 245.06-2.24L245.06-2.24L245.06-2.24Q248.45-1.92 252.10-1.02L252.10-1.02L251.90 0.51L251.90 0.51Q247.17 0 241.63 0L241.63 0L241.63 0Q236.10 0 232.70 0.51L232.70 0.51L232.45-1.09L232.45-1.09Q235.33-1.98 238.59-2.43L238.59-2.43L238.59-2.43Q239.30-7.68 239.30-18.94L239.30-18.94L239.30-22.72L239.30-22.72Q239.30-33.09 238.46-39.23L238.46-39.23L238.46-39.23Q235.20-39.68 232.32-40.58L232.32-40.58L232.58-42.18L232.58-42.18Q235.97-41.66 241.50-41.66L241.50-41.66L241.50-41.66Q247.04-41.66 251.78-42.18L251.78-42.18L251.97-40.64L251.97-40.64Q248.32-39.74 244.93-39.42ZM283.07-0.58L282.69 0.70L282.69 0.70Q276.29 0 268.06 0L268.06 0L268.06 0Q259.84 0 254.14 0.64L254.14 0.64L253.89-0.96L253.89-0.96Q256.38-1.79 260.03-2.43L260.03-2.43L260.03-2.43Q260.74-7.68 260.74-18.94L260.74-18.94L260.74-22.72L260.74-22.72Q260.74-33.92 260.03-39.23L260.03-39.23L260.03-39.23Q256.77-39.68 253.89-40.58L253.89-40.58L254.14-42.18L254.14-42.18Q257.54-41.66 263.07-41.66L263.07-41.66L263.07-41.66Q268.61-41.66 273.34-42.18L273.34-42.18L273.54-40.64L273.54-40.64Q269.70-39.74 266.50-39.42L266.50-39.42L266.50-39.42Q265.66-33.79 265.66-20.61L265.66-20.61L265.66-20.61Q265.66-7.42 266.30-2.69L266.30-2.69L266.30-2.69Q268.42-2.37 272.00-2.37L272.00-2.37L272.00-2.37Q275.58-2.37 278.14-3.52L278.14-3.52L278.14-3.52Q278.91-5.89 279.36-10.69L279.36-10.69L280.96-10.69L280.96-10.69Q281.22-3.90 283.07-0.58L283.07-0.58ZM288.96-10.62L289.02-8.32L289.15-5.76L289.15-5.57L289.15-5.57Q292.80-4.10 296.45-4.10L296.45-4.10L296.45-4.10Q300.10-4.10 302.24-5.79L302.24-5.79L302.24-5.79Q304.38-7.49 304.38-10.75L304.38-10.75L304.38-10.75Q304.38-12.67 301.63-15.07L301.63-15.07L301.63-15.07Q298.88-17.47 295.55-19.39L295.55-19.39L295.55-19.39Q292.22-21.31 289.47-23.78L289.47-23.78L289.47-23.78Q286.72-26.24 286.72-28.29L286.72-28.29L286.72-28.29Q286.72-32.77 290.85-36.96L290.85-36.96L290.85-36.96Q294.98-41.15 299.90-42.62L299.90-42.62L299.90-42.62Q305.41-42.62 310.34-41.54L310.34-41.54L310.34-40.26L310.34-40.26Q307.01-37.18 306.62-30.78L306.62-30.78L305.02-30.78L305.02-30.78Q305.02-34.18 304.70-36.74L304.70-36.74L304.70-36.74Q301.95-38.02 298.59-38.02L298.59-38.02L298.59-38.02Q295.23-38.02 293.12-36.61L293.12-36.61L293.12-36.61Q291.01-35.20 291.01-32.58L291.01-32.58L291.01-32.58Q291.01-30.66 293.76-28.29L293.76-28.29L293.76-28.29Q296.51-25.92 299.81-24.03L299.81-24.03L299.81-24.03Q303.10-22.14 305.86-19.71L305.86-19.71L305.86-19.71Q308.61-17.28 308.61-15.23L308.61-15.23L308.61-15.23Q308.61-10.56 304.48-5.76L304.48-5.76L304.48-5.76Q300.35-0.96 295.49 0.96L295.49 0.96L295.49 0.96Q290.43 0.96 286.08-0.19L286.08-0.19L286.08-0.19Q284.74 0.45 283.39 1.73L283.39 1.73L282.43 0.83L282.43 0.83Q286.85-3.84 287.36-11.52L287.36-11.52L288.96-11.52L288.96-10.62ZM330.75 0.96L330.75 0.96Q323.26 0.96 318.72-4L318.72-4L318.72-4Q314.18-8.96 314.18-17.41L314.18-17.41L314.18-17.41Q314.18-25.86 318.94-33.18L318.94-33.18L318.94-33.18Q323.71-40.51 331.52-42.62L331.52-42.62L331.52-42.62Q339.33-42.62 343.33-37.95L343.33-37.95L343.33-37.95Q347.33-33.28 347.33-24.61L347.33-24.61L347.33-24.61Q347.33-15.94 342.94-8.99L342.94-8.99L342.94-8.99Q338.56-2.05 330.75 0.96L330.75 0.96ZM329.15-38.02L329.15-38.02L329.15-38.02Q325.57-38.02 323.14-35.84L323.14-35.84L323.14-35.84Q319.87-30.08 319.87-21.70L319.87-21.70L319.87-21.70Q319.87-11.71 325.25-6.46L325.25-6.46L325.25-6.46Q328.13-3.65 332.00-3.65L332.00-3.65L332.00-3.65Q335.87-3.65 338.43-5.89L338.43-5.89L338.43-5.89Q341.63-11.78 341.63-19.84L341.63-19.84L341.63-19.84Q341.63-27.33 339.07-32.38L339.07-32.38L339.07-32.38Q336.26-38.02 329.15-38.02ZM351.36-40.58L351.62-42.18L351.62-42.18Q354.82-41.66 359.90-41.66L359.90-41.66L359.90-41.66Q364.99-41.66 367.81-42.05L367.81-42.05L368.13-41.02L368.13-41.02Q367.36-40.77 366.66-40.22L366.66-40.22L366.66-40.22Q365.95-39.68 365.95-39.04L365.95-39.04L365.95-39.04Q365.95-37.50 369.22-31.87L369.22-31.87L369.22-31.87Q372.48-26.24 383.55-8.96L383.55-8.96L383.81-9.09L383.81-18.30L383.81-18.30Q383.81-29.06 382.72-34.56L382.72-34.56L382.72-34.56Q381.63-40.06 378.88-41.02L378.88-41.02L379.14-41.92L379.14-41.92Q381.12-41.66 385.60-41.66L385.60-41.66L385.60-41.66Q390.08-41.66 393.86-42.18L393.86-42.18L394.05-40.70L394.05-40.70Q389.50-39.62 387.71-39.42L387.71-39.42L387.71-39.42Q386.88-33.15 386.88-22.72L386.88-22.72L386.88-18.94L386.88-18.94Q386.88-6.98 387.71-2.24L387.71-2.24L387.71-2.24Q390.98-1.86 393.86-1.09L393.86-1.09L393.60 0.51L393.60 0.51Q390.21 0 386.78 0L386.78 0L386.78 0Q383.36 0 381.25 0.19L381.25 0.19L381.25 0.19Q381.25-4.22 361.98-34.24L361.98-34.24L361.73-34.11L361.73-23.36L361.73-23.36Q361.73-7.04 364.10-2.24L364.10-2.24L364.10-2.24Q367.62-1.92 371.07-1.02L371.07-1.02L370.94 0.51L370.94 0.51Q366.21 0 360.67 0L360.67 0L360.67 0Q355.14 0 351.74 0.51L351.74 0.51L351.49-1.09L351.49-1.09Q354.37-1.98 357.63-2.43L357.63-2.43L357.63-2.43Q358.34-7.68 358.34-18.94L358.34-18.94L358.34-22.72L358.34-22.72Q358.34-33.09 357.50-39.23L357.50-39.23L357.50-39.23Q354.24-39.68 351.36-40.58L351.36-40.58Z" fill="#ccc"></path></g></g><style>text {
  font-size: 64px;
  font-family: Arial Black;
  dominant-baseline: central;
  text-anchor: middle;
}</style></svg>